<?xml version="1.0" encoding="UTF-8"?>
<svg id="Livello_1" data-name="Livello 1" xmlns="http://www.w3.org/2000/svg" viewBox="0 0 272.29 146.9">
  <defs>
    <style>
      .cls-1 {
        fill: #fff;
      }
    </style>
  </defs>
  <g>
    <path class="cls-1" d="M77.69,100.79v-34.31s12.82-7.4,12.82-7.4c1.67-.97,3.19-1.7,4.56-2.19,1.37-.5,2.58-.76,3.63-.79,1.05-.03,1.94.15,2.67.54.73.39,1.28,1.01,1.64,1.86.36.85.55,1.91.55,3.19,0,1.21-.17,2.4-.5,3.56-.34,1.16-.84,2.31-1.53,3.43-.68,1.12-1.54,2.21-2.58,3.26-1.03,1.05-2.24,2.07-3.6,3.07v.78c1.73-.79,3.08-1.13,4.04-1.01.96.12,1.7.59,2.21,1.4.52.81.97,1.88,1.37,3.21l1.73,5.81-8.17,4.71-1.32-5.53c-.27-1.23-.65-2.09-1.12-2.58-.47-.49-1.07-.67-1.8-.54-.73.13-1.64.51-2.74,1.14l-4.52,2.61v11.54s-7.34,4.24-7.34,4.24ZM85.04,78.82l4.97-2.87c1.86-1.07,3.3-2.32,4.33-3.75,1.03-1.43,1.55-3.03,1.55-4.79,0-1.73-.47-2.74-1.41-3.03-.94-.29-2.37.12-4.29,1.23l-5.15,2.98v10.24Z"/>
    <path class="cls-1" d="M129.75,70.73l8.03-4.64-10.22-28.41-10.77,6.22-10.22,40.21,8.03-4.64,1.67-7.41,11.8-6.81,1.67,5.48ZM117.73,65.61l4.08-18.05.73-.42,4.08,13.34-8.88,5.13Z"/>
  </g>
  <g>
    <path class="cls-1" d="M186.37,49.82c-1.09-3.14-2.83-6.08-5.2-8.8-2.37-2.72-5.43-5.16-9.17-7.32l-3.6-2.08-3.92-2.27-3.42-1.98v34.31s3.42,1.98,3.42,1.98l3.92,2.27,5.02,2.9c1.37.79,2.74,1.41,4.13,1.86,1.38.45,2.71.64,3.97.55,1.26-.09,2.38-.51,3.35-1.29.97-.77,1.74-1.98,2.3-3.63.56-1.65.84-3.83.84-6.53,0-3.5-.55-6.82-1.64-9.97ZM179.55,61.03c-.53,1.22-1.33,1.9-2.4,2.05-1.07.15-2.39-.23-3.97-1.15l-4.79-2.77v-20.79s3.88,2.24,3.88,2.24c1.37.79,2.56,1.69,3.58,2.69,1.02,1,1.86,2.12,2.51,3.35.65,1.23,1.15,2.59,1.48,4.1.33,1.51.5,3.18.5,5.02,0,2.29-.27,4.04-.8,5.26Z"/>
    <path class="cls-1" d="M205.33,87.24c-2.1-1.21-4-2.67-5.69-4.38-1.69-1.71-3.14-3.63-4.35-5.76-1.21-2.13-2.14-4.43-2.78-6.91-.64-2.48-.96-5.12-.96-7.91,0-3.92.61-6.81,1.82-8.65,1.21-1.84,2.88-2.78,5.01-2.82,2.13-.03,4.54.72,7.22,2.27,2.07,1.2,3.95,2.65,5.65,4.36,1.69,1.71,3.14,3.63,4.35,5.75,1.21,2.13,2.14,4.45,2.8,6.98.66,2.52.98,5.18.98,7.97,0,2.89-.34,5.21-1.03,6.96-.69,1.75-1.65,2.98-2.89,3.69-1.24.71-2.72.93-4.44.65-1.72-.28-3.62-1.02-5.69-2.21ZM205.55,81.09c1.43.82,2.63,1.11,3.61.86.98-.25,1.72-1,2.23-2.25.51-1.25.77-2.99.77-5.22,0-2.36-.26-4.51-.79-6.46-.53-1.95-1.29-3.64-2.3-5.07s-2.24-2.56-3.7-3.41-2.59-1.09-3.57-.84c-.98.25-1.73,1.01-2.25,2.29-.53,1.28-.79,3.06-.79,5.35,0,1.73.15,3.35.46,4.88s.74,2.9,1.29,4.14c.55,1.23,1.26,2.34,2.12,3.32.86.98,1.83,1.78,2.91,2.4Z"/>
  </g>
  <g>
    <path class="cls-1" d="M71.56,35.5c.77-1.13,1.03-2.27.79-3.43-.24-1.16-.92-2.32-2.04-3.48-1.12-1.16-2.65-2.3-4.59-3.42l-5.24-3.01-1.96-1.13-5.38-3.09-29.61,17.17,7.34,4.22,8.12-4.71,3.69,2.12c3.16,1.82,6.2,3.1,9.12,3.84,2.92.75,5.71.97,8.37.67,2.66-.3,5.16-1.12,7.5-2.48,1.82-1.06,3.12-2.15,3.89-3.28ZM54.93,35.96c-1.78-.09-3.66-.7-5.63-1.84l-4.74-2.72,10.41-6.03,5.01,2.88c1.94,1.12,2.93,2.19,2.96,3.2.03,1.02-.8,2.01-2.47,2.98-1.91,1.11-3.76,1.62-5.54,1.53Z"/>
    <path class="cls-1" d="M69.9,61.78l8.02,4.61,19.41-23.04-10.75-6.18-39.82,11.3,8.02,4.61,7.24-2.26,11.78,6.78-3.89,4.19ZM68.31,48.84l17.62-5.51.73.42-9.48,10.2-8.87-5.1Z"/>
  </g>
  <g>
    <path class="cls-1" d="M219.34,61.14l15.1,3.24,15.01-20.26v9.77s-11.13,14.02-11.13,14.02v.31l11.13,1.27v9.82s-14.83-3.19-14.83-3.19l-15.28,20.93v-9.77s11.5-14.75,11.5-14.75v-.31l-11.5-1.32v-9.77Z"/>
    <path class="cls-1" d="M219.34,124.92v9.15s30.11-29.03,30.11-29.03v-12.27s-30.11,5.74-30.11,5.74v9.15s5.66-1.36,5.66-1.36v13.44s-5.66,5.17-5.66,5.17ZM229.92,105.12l13.78-3.31v.83s-13.78,12.6-13.78,12.6v-10.12Z"/>
  </g>
</svg>